<svg xmlns="http://www.w3.org/2000/svg" xmlns:xlink="http://www.w3.org/1999/xlink" width="1080" zoomAndPan="magnify" viewBox="0 0 810 809.999993" height="1080" preserveAspectRatio="xMidYMid meet" version="1.0"><defs><clipPath id="8fe1370cf1"><path d="M 25.503906 118 L 382 118 L 382 692 L 25.503906 692 Z M 25.503906 118 " clip-rule="nonzero"/></clipPath></defs><path fill="#193b61" d="M 714.113281 172.867188 C 682.675781 140.195312 643.414062 122.847656 596.507812 120.519531 C 587.84375 119.0625 579 118.117188 569.925781 118.117188 C 519.25 118.117188 474.234375 141.894531 445.125 178.820312 C 429.222656 197.460938 419.152344 218.257812 415.167969 241.3125 C 412.527344 252.808594 410.996094 264.738281 410.996094 277.046875 C 410.996094 364.835938 482.160156 435.976562 569.925781 435.976562 C 605.707031 435.976562 638.554688 424.007812 665.136719 404.109375 C 665.1875 406.105469 665.476562 407.949219 665.476562 410.03125 C 665.476562 494.292969 601.253906 578.484375 472.839844 662.714844 L 491.464844 691.730469 C 673.742188 578.507812 764.886719 454.234375 764.886719 318.867188 C 764.886719 256.757812 747.925781 208.101562 714.113281 172.867188 Z M 714.113281 172.867188 " fill-opacity="1" fill-rule="nonzero"/><g clip-path="url(#8fe1370cf1)"><path fill="#193b61" d="M 210.113281 120.386719 C 201.75 119.042969 193.203125 118.117188 184.433594 118.117188 C 96.671875 118.117188 25.503906 189.28125 25.503906 277.046875 C 25.503906 364.804688 96.671875 435.976562 184.433594 435.976562 C 221.144531 435.976562 254.875 423.402344 281.828125 402.453125 C 281.960938 404.976562 282.261719 407.347656 282.261719 410.03125 C 282.261719 494.292969 218.0625 578.484375 89.625 662.714844 L 108.261719 691.730469 C 290.527344 578.507812 381.679688 454.234375 381.679688 318.867188 C 381.679688 256.730469 364.746094 208.039062 330.929688 172.839844 C 298.789062 139.433594 258.445312 122.066406 210.113281 120.386719 Z M 210.113281 120.386719 " fill-opacity="1" fill-rule="nonzero"/></g></svg>